<?xml version="1.0" standalone="no"?>
<!DOCTYPE svg PUBLIC "-//W3C//DTD SVG 1.0//EN" "http://www.w3.org/TR/2001/REC-SVG-20010904/DTD/svg10.dtd">
<svg xmlns="http://www.w3.org/2000/svg" xmlns:xlink="http://www.w3.org/1999/xlink" id="body_1" width="61" height="46">

<g transform="matrix(1.4375 0 0 1.4375 7.5000014 -0)">
	<g>
        <path d="M29.44 15.29L26 11.86L26 7C 26 6.4477153 25.552284 6 25 6L25 6L20.14 6L16.71 2.56C 16.522232 2.3706872 16.266636 2.2642016 15.999999 2.2642016C 15.733361 2.2642016 15.477766 2.3706872 15.289999 2.56L15.289999 2.56L11.86 6L7 6C 6.4477153 6 6 6.4477153 6 7L6 7L6 11.860001L2.56 15.29C 2.3706875 15.477767 2.264202 15.733362 2.264202 16C 2.264202 16.266638 2.3706875 16.522232 2.56 16.71L2.56 16.71L6 20.14L6 25C 6 25.552284 6.4477153 26 7 26L7 26L11.860001 26L15.290001 29.43C 15.477767 29.619314 15.733362 29.7258 16 29.7258C 16.266638 29.7258 16.522234 29.619314 16.710001 29.43L16.710001 29.43L20.14 26L25 26C 25.552284 26 26 25.552284 26 25L26 25L26 20.14L29.44 16.71C 29.629313 16.522232 29.735798 16.266636 29.735798 15.999999C 29.735798 15.733361 29.629313 15.477766 29.44 15.289999L29.44 15.289999L29.44 15.29zM18.85 21.59C 19.238462 21.737345 19.495354 22.109535 19.495354 22.525002C 19.495354 22.94047 19.238462 23.312658 18.85 23.460001C 17.943268 23.820587 16.97579 24.003899 16 24C 11.581722 24 8 20.418278 8 16C 8 11.581721 11.581722 8 16 8C 16.982513 7.9935336 17.957024 8.17689 18.869999 8.54C 19.25846 8.687345 19.51535 9.059534 19.51535 9.475C 19.51535 9.890467 19.25846 10.262656 18.869999 10.41C 16.56651 11.308273 15.049885 13.527559 15.049885 16C 15.049885 18.47244 16.56651 20.691727 18.869999 21.59z" stroke="none" fill="#000000" fill-rule="nonzero" />
	</g>
</g>
</svg>